HIERARCHY
ROOT Hips
{
	OFFSET 0.00000 0.00000 0.00000
	CHANNELS 6 Xposition Yposition Zposition Zrotation Yrotation Xrotation 
	JOINT RightUpLegDummy
	{
		OFFSET 0 0 0
		CHANNELS 3 Zrotation Yrotation Xrotation
		JOINT RightUpLeg
		{
			OFFSET -3.52197 -3.41223 0.04002
			CHANNELS 3 Zrotation Yrotation Xrotation
			JOINT RightLeg
			{
				OFFSET 0.00006 -17.42390 1.60435
				CHANNELS 3 Zrotation Yrotation Xrotation
				JOINT RightFoot
				{
					OFFSET 0.06154 -16.50078 -1.63900
					CHANNELS 3 Zrotation Yrotation Xrotation
					JOINT RightToes
					{
						OFFSET 0.00298 -1.73825 3.34613
						CHANNELS 3 Zrotation Yrotation Xrotation
						End Site
						{
							OFFSET 0.00480 -0.05416 3.85043
						}
					}
				}
			}
		}
	}
	JOINT SpineDummy
	{
		OFFSET 0 0 0
		CHANNELS 3 Zrotation Yrotation Xrotation
		JOINT Spine
		{
			OFFSET 0.00000 4.68130 0.00000
			CHANNELS 3 Zrotation Yrotation Xrotation
			JOINT Spine1
			{
				OFFSET -0.00000 10.10138 0.05002
				CHANNELS 3 Zrotation Yrotation Xrotation
				JOINT HEadDummy
				{
					OFFSET 0 0 0
					CHANNELS 3 Zrotation Yrotation Xrotation
					JOINT Head
					{
						OFFSET -0.00000 3.43865 0.00438
						CHANNELS 3 Zrotation Yrotation Xrotation
						End Site
						{
							OFFSET -0.11417 5.02924 0.98962
						}
					}
				}
				JOINT LeftShoulder1Dummy
				{
					OFFSET 0 0 0
					CHANNELS 3 Zrotation Yrotation Xrotation
					JOINT LeftShoulder1
					{
						OFFSET 3.53937 -0.14262 -0.08662
						CHANNELS 3 Zrotation Yrotation Xrotation
						JOINT LeftArm
						{
							OFFSET 4.04833 -0.00133 0.12681
							CHANNELS 3 Zrotation Yrotation Xrotation
							JOINT LeftForeArm
							{
								OFFSET 10.33880 -0.01036 -0.55515
								CHANNELS 3 Zrotation Yrotation Xrotation
								JOINT LeftHand
								{
									OFFSET 8.69677 0.07543 0.40060
									CHANNELS 3 Zrotation Yrotation Xrotation
									End Site
									{
										OFFSET 5.28377 -0.21905 0.59205
									}
								}
							}
						}
					}
				}
				JOINT RightShoulderDummy
				{
					OFFSET 0 0 0
					CHANNELS 3 Zrotation Yrotation Xrotation
					JOINT RightShoulder
					{
						OFFSET -3.53937 -0.14262 -0.08660
						CHANNELS 3 Zrotation Yrotation Xrotation
						JOINT RightArm
						{
							OFFSET -4.04833 -0.00133 0.12683
							CHANNELS 3 Zrotation Yrotation Xrotation
							JOINT RightForeArm
							{
								OFFSET -10.37987 -0.01039 -0.55511
								CHANNELS 3 Zrotation Yrotation Xrotation
								JOINT RightHand
								{
									OFFSET -8.67398 0.07538 0.40058
									CHANNELS 3 Zrotation Yrotation Xrotation
									End Site
									{
										OFFSET -5.24810 -0.21916 0.59204
									}
								}
							}
						}
					}
				}
			}
		}
	}
	JOINT LeftUpLegDummy
	{
		OFFSET 0 0 0
		CHANNELS 3 Zrotation Yrotation Xrotation
		JOINT LeftUpLeg
		{
			OFFSET 3.52197 -3.41223 0.04002
			CHANNELS 3 Zrotation Yrotation Xrotation
			JOINT LeftLeg
			{
				OFFSET -0.00012 -17.42399 1.60337
				CHANNELS 3 Zrotation Yrotation Xrotation
				JOINT LeftFoot
				{
					OFFSET -0.09972 -16.50070 -1.63802
					CHANNELS 3 Zrotation Yrotation Xrotation
					JOINT LeftToes
					{
						OFFSET -0.01575 -1.73823 3.34611
						CHANNELS 3 Zrotation Yrotation Xrotation
						End Site
						{
							OFFSET 0.03150 -0.01868 3.85031
						}
					}
				}
			}
		}
	}
}
MOTION
Frames: 11
Frame Time: 0.033333
60.3567 37.2166 -0.6675 -149.3190 78.4053 -152.7660 0.0000 0.0000 0.0000 7.5247 -6.9488 -6.2070 -8.8207 -17.5322 27.4415 5.7914 0.1991 -16.5072 0.0000 0.0000 -0.0000 0.0000 0.0000 0.0000 17.2811 3.7990 -13.9040 16.0293 -2.6775 25.2894 0.0000 0.0000 0.0000 -11.8830 41.4850 -1.5926 0.0000 0.0000 0.0000 -19.4906 -1.6309 1.3346 -66.6501 -16.0905 9.9002 -14.0642 -9.0422 26.6825 12.5406 -3.0408 -0.8858 0.0000 0.0000 0.0000 21.1207 1.1518 1.2844 43.6100 12.4976 -15.5159 10.4166 8.1221 26.7590 -6.8582 1.4630 -0.3916 0.0000 0.0000 0.0000 5.7128 6.1183 -8.6501 -34.8835 -57.0589 34.1481 -9.2507 -70.1556 -179.1700 0.0000 0.0000 -0.0000
60.3617 37.2174 -0.6603 -149.3240 78.4011 -152.7460 0.0000 0.0000 0.0000 7.5443 -6.9278 -6.2218 -8.8287 -17.5532 27.4314 5.7744 0.1997 -16.5055 0.0000 0.0000 -0.0000 0.0000 0.0000 0.0000 17.2681 3.7853 -13.9261 16.0194 -2.6991 25.3219 0.0000 0.0000 0.0000 -11.6399 41.2176 -1.5915 0.0000 0.0000 0.0000 -19.3678 -1.6440 1.3321 -66.7854 -16.1269 9.6201 -14.0932 -8.9268 26.8695 12.4573 -2.9763 -0.8733 0.0000 0.0000 0.0000 21.1865 1.1478 1.2829 43.6016 12.5345 -15.5287 10.4342 8.0671 26.8919 -6.9909 1.5006 -0.4014 0.0000 0.0000 0.0000 5.7251 6.1039 -8.6635 -35.1064 -57.2272 34.3267 -9.1320 -69.9370 -179.2890 0.0000 0.0000 -0.0000
60.3655 37.2171 -0.6531 -149.3840 78.4072 -152.7760 0.0000 0.0000 0.0000 7.5498 -6.9150 -6.2590 -8.8407 -17.5464 27.4506 5.7704 0.2001 -16.5062 0.0000 0.0000 -0.0000 0.0000 0.0000 0.0000 17.2517 3.7711 -13.8187 16.0297 -2.6851 25.1546 0.0000 0.0000 0.0000 -11.6208 41.1425 -1.6384 0.0000 0.0000 0.0000 -19.3746 -1.6376 1.3308 -66.7500 -16.1709 9.2599 -14.2169 -8.6338 27.3901 12.5313 -3.1064 -0.8918 0.0000 0.0000 0.0000 21.2452 1.1364 1.2824 43.6024 12.4922 -15.4519 10.4613 8.0556 26.9009 -7.0606 1.4780 -0.4044 0.0000 0.0000 0.0000 5.7194 6.1126 -8.6878 -35.2147 -57.3114 34.4125 -9.0709 -69.8396 -179.3550 0.0000 0.0000 -0.0000
60.3696 37.2146 -0.6465 -149.4510 78.4211 -152.8030 0.0000 0.0000 0.0000 7.5503 -6.9110 -6.3172 -8.8549 -17.5183 27.4948 5.7844 0.2004 -16.5224 0.0000 0.0000 -0.0000 0.0000 0.0000 0.0000 17.2594 3.7796 -13.7700 16.0362 -2.6597 25.0517 0.0000 0.0000 0.0000 -11.6773 41.1102 -1.6353 0.0000 0.0000 0.0000 -19.4302 -1.6690 1.3416 -66.6556 -16.2173 9.0783 -14.3103 -8.4285 27.7604 12.6789 -3.2952 -0.9219 0.0000 0.0000 0.0000 21.2631 1.1429 1.2850 43.6477 12.4222 -15.3893 10.4740 8.0790 26.7404 -7.0096 1.3857 -0.3965 0.0000 0.0000 0.0000 5.7061 6.2031 -8.7399 -34.5479 -56.8282 33.8717 -9.3680 -70.5226 -179.0860 0.0000 0.0000 -0.0000
60.3757 37.2111 -0.6405 -149.4990 78.4180 -152.8100 0.0000 0.0000 0.0000 7.5658 -6.9031 -6.3676 -8.8821 -17.5269 27.5230 5.8009 0.2023 -16.5443 0.0000 0.0000 -0.0000 0.0000 0.0000 0.0000 17.3032 3.7886 -13.9256 15.9744 -2.6722 25.2366 0.0000 0.0000 0.0000 -11.7258 41.1552 -1.6482 0.0000 0.0000 0.0000 -19.3935 -1.7056 1.3495 -66.6580 -16.2767 9.0613 -14.2990 -8.4406 27.7606 12.7249 -3.3766 -0.9337 0.0000 0.0000 0.0000 21.2629 1.1818 1.2958 43.7311 12.4334 -15.4803 10.4583 8.0645 26.6434 -6.9286 1.3436 -0.3896 0.0000 0.0000 0.0000 5.7041 6.3249 -8.8057 -33.4270 -55.9852 32.9701 -9.9391 -71.6891 -178.5590 0.0000 0.0000 -0.0000
60.3832 37.2095 -0.6345 -149.5290 78.4143 -152.8170 0.0000 0.0000 0.0000 7.5860 -6.8893 -6.3792 -8.9117 -17.5632 27.5152 5.8140 0.2035 -16.5549 0.0000 0.0000 -0.0000 0.0000 0.0000 0.0000 17.3523 3.7779 -14.0991 15.8769 -2.7025 25.4784 0.0000 0.0000 0.0000 -11.8030 41.3628 -1.7192 0.0000 0.0000 0.0000 -19.3203 -1.7103 1.3469 -66.7036 -16.3048 9.0693 -14.2401 -8.5415 27.6634 12.7142 -3.4224 -0.9376 0.0000 0.0000 0.0000 21.2629 1.2292 1.3088 43.8021 12.4908 -15.6463 10.4189 8.0291 26.7980 -6.8738 1.3898 -0.3888 0.0000 0.0000 0.0000 5.7099 6.3861 -8.8322 -32.8206 -55.5211 32.4836 -10.2803 -72.3269 -178.2430 0.0000 0.0000 -0.0000
60.3899 37.2095 -0.6276 -149.5620 78.4398 -152.8430 0.0000 0.0000 0.0000 7.5865 -6.8812 -6.3746 -8.9215 -17.5583 27.5104 5.8312 0.2042 -16.5586 0.0000 0.0000 -0.0000 0.0000 0.0000 0.0000 17.3479 3.7635 -14.0698 15.8763 -2.7115 25.4634 0.0000 0.0000 0.0000 -11.9625 41.6642 -1.7935 0.0000 0.0000 0.0000 -19.3935 -1.7022 1.3484 -66.6316 -16.2706 9.0526 -14.2196 -8.5750 27.7348 12.7397 -3.5383 -0.9514 0.0000 0.0000 0.0000 21.2301 1.2540 1.3148 43.8266 12.4897 -15.6976 10.3697 8.0638 27.0440 -6.7445 1.3616 -0.3799 0.0000 0.0000 0.0000 5.7064 6.3696 -8.8151 -33.0371 -55.6993 32.6529 -10.1424 -72.0784 -178.3710 0.0000 0.0000 -0.0000
60.3947 37.2081 -0.6191 -149.6460 78.4637 -152.9050 0.0000 0.0000 0.0000 7.5760 -6.8811 -6.4099 -8.9247 -17.5190 27.5516 5.8512 0.2045 -16.5733 0.0000 0.0000 -0.0000 0.0000 0.0000 0.0000 17.2665 3.7619 -13.9700 16.0165 -2.7306 25.3275 0.0000 0.0000 0.0000 -12.1992 41.9166 -1.8803 0.0000 0.0000 0.0000 -19.6019 -1.6998 1.3579 -66.4675 -16.2393 9.1091 -14.2235 -8.5882 27.7655 12.6628 -3.6011 -0.9518 0.0000 0.0000 0.0000 21.1506 1.2580 1.3167 43.8216 12.4588 -15.6526 10.3205 8.1626 27.1043 -6.4600 1.1200 -0.3519 0.0000 0.0000 0.0000 5.6933 6.3379 -8.8281 -33.3829 -55.9441 32.9372 -9.9563 -71.7243 -178.5440 0.0000 0.0000 -0.0000
60.4002 37.2041 -0.6088 -149.8190 78.4324 -153.0240 0.0000 0.0000 0.0000 7.5838 -6.8827 -6.4891 -8.9545 -17.5299 27.6185 5.8533 0.2059 -16.6036 0.0000 0.0000 -0.0000 0.0000 0.0000 0.0000 17.1763 3.7586 -14.0513 16.1344 -2.7915 25.3910 0.0000 0.0000 0.0000 -12.3507 41.9773 -1.9932 0.0000 0.0000 0.0000 -19.6957 -1.6822 1.3578 -66.4160 -16.2742 9.3842 -14.1797 -8.7309 27.3539 12.3277 -3.4407 -0.9099 0.0000 0.0000 0.0000 21.1129 1.2584 1.3167 43.8016 12.5013 -15.6979 10.2783 8.2130 26.9787 -6.1529 0.7809 -0.3193 0.0000 0.0000 0.0000 5.6854 6.3484 -8.9127 -33.0981 -55.6725 32.7267 -10.1406 -72.0844 -178.3750 0.0000 0.0000 -0.0000
60.4088 37.2005 -0.5978 -150.0470 78.3653 -153.1890 0.0000 0.0000 0.0000 7.6050 -6.8837 -6.5586 -9.0015 -17.6046 27.6613 5.8233 0.2092 -16.6381 0.0000 0.0000 -0.0000 0.0000 0.0000 0.0000 17.1800 3.7371 -14.2480 16.0406 -2.8301 25.5933 0.0000 0.0000 0.0000 -12.1593 41.7193 -1.9806 0.0000 0.0000 0.0000 -19.5331 -1.6359 1.3380 -66.5494 -16.3268 9.8965 -14.0937 -8.9925 26.5001 11.8965 -3.1326 -0.8474 0.0000 0.0000 0.0000 21.2287 1.2487 1.3153 43.7278 12.5972 -15.8414 10.2618 8.1729 26.8756 -6.0645 0.5885 -0.3061 0.0000 0.0000 0.0000 5.6827 6.4047 -9.0085 -32.3186 -55.0394 32.1124 -10.6237 -72.9729 -177.9330 0.0000 0.0000 -0.0000
60.4192 37.1991 -0.5880 -150.2280 78.3234 -153.3230 0.0000 0.0000 0.0000 7.6164 -6.8807 -6.5953 -9.0282 -17.6650 27.6740 5.7907 0.2123 -16.6617 0.0000 0.0000 -0.0000 0.0000 0.0000 0.0000 17.2837 3.7075 -14.3185 15.7828 -2.7871 25.6411 0.0000 0.0000 0.0000 -11.6496 41.2426 -1.7485 0.0000 0.0000 0.0000 -19.2795 -1.5889 1.3137 -66.7086 -16.3196 10.4493 -14.0375 -9.2113 25.6523 11.6660 -2.9047 -0.8091 0.0000 0.0000 0.0000 21.4645 1.2130 1.3132 43.5722 12.6495 -15.8812 10.2911 8.1108 26.8864 -6.3073 0.6394 -0.3211 0.0000 0.0000 0.0000 5.6783 6.4699 -9.0570 -31.6768 -54.5506 31.5943 -11.0342 -73.6841 -177.5600 0.0000 0.0000 -0.0000
